<svg xmlns="http://www.w3.org/2000/svg" width="1240" height="1240"><path d="M0 620.001v620.001l620.25-.251 620.25-.251.251-619.75.251-619.75H0v620.001m.497.499c0 341 .114 480.649.253 310.332s.139-449.317 0-620S.497 279.5.497 620.5M307.5 223.231c-5.982 1.464-13.74 3.737-16 4.688-1.1.463-4.025 1.661-6.5 2.664-2.475 1.002-6.871 3.305-9.769 5.119-2.899 1.814-5.711 3.298-6.25 3.298-.54 0-.981.353-.981.784 0 .432-1.379 1.599-3.065 2.595-11.255 6.649-28.097 27.566-34.316 42.621-1.022 2.475-2.237 5.4-2.7 6.5-1.02 2.424-3.268 10.28-4.796 16.764-1.603 6.802-1.603 616.67 0 623.472 1.528 6.484 3.776 14.34 4.796 16.764.463 1.1 1.678 4.025 2.7 6.5 6.219 15.055 23.061 35.972 34.316 42.621 1.686.996 3.065 2.163 3.065 2.595 0 .431.441.784.981.784.539 0 3.351 1.484 6.25 3.298 2.898 1.814 7.294 4.117 9.769 5.119 2.475 1.003 5.4 2.201 6.5 2.664 2.424 1.02 10.28 3.268 16.764 4.796 6.802 1.603 616.67 1.603 623.472 0 6.484-1.528 14.34-3.776 16.764-4.796 1.1-.463 4.025-1.661 6.5-2.664 2.475-1.002 6.871-3.305 9.769-5.119 2.899-1.814 5.711-3.298 6.25-3.298.54 0 .981-.353.981-.784 0-.432 1.379-1.599 3.065-2.595 11.255-6.649 28.097-27.566 34.316-42.621 1.022-2.475 2.237-5.4 2.7-6.5 1.02-2.424 3.268-10.28 4.796-16.764 1.603-6.802 1.603-616.67 0-623.472-1.528-6.484-3.776-14.34-4.796-16.764-.463-1.1-1.678-4.025-2.7-6.5-6.219-15.055-23.061-35.972-34.316-42.621-1.686-.996-3.065-2.163-3.065-2.595 0-.431-.441-.784-.981-.784-.539 0-3.351-1.484-6.25-3.298-2.898-1.814-7.294-4.117-9.769-5.119a736.448 736.448 0 01-6.5-2.664c-2.424-1.02-10.28-3.268-16.764-4.796-6.243-1.472-618.213-1.365-624.236.108m10.313 70.744c-12.108 4.609-19.932 12.721-24.262 25.155-1.349 3.874-1.524 38.02-1.536 300.884-.015 289.225.032 296.642 1.892 301.732 4.554 12.457 12.551 20.29 25.223 24.703 3.874 1.349 38.02 1.524 300.884 1.536 289.225.015 296.642-.032 301.732-1.892 12.457-4.554 20.29-12.551 24.703-25.223 1.349-3.874 1.522-37.994 1.522-300.87s-.173-296.996-1.522-300.87c-2.329-6.687-4.251-9.959-8.655-14.738-4.759-5.162-8.914-7.877-16.048-10.485-5.091-1.861-12.408-1.905-302.232-1.812-282.487.091-297.243.183-301.701 1.88M752.5 495.605c-8.746 2.175-11.98 5.167-91.504 84.645C617.66 623.563 581.837 659 581.391 659c-.447 0-19.28-18.409-41.851-40.909-43.434-43.295-43.827-43.621-55.54-45.944-9.766-1.937-22.664 2.245-30.056 9.745-11.422 11.588-13.907 26.048-7.065 41.108.953 2.096 23.973 25.985 57.395 59.559 64.66 64.956 60.911 61.967 77.646 61.896 10.89-.046 12.451-.506 20.58-6.065 1.1-.752 43.716-43.061 94.703-94.021 95.764-95.714 95.154-95.057 98.717-106.268 3.273-10.3-1.423-25.777-10.262-33.82-7.038-6.405-12.348-8.53-22.158-8.866-4.95-.169-9.9-.084-11 .19" fill="undefined" fill-rule="evenodd"/></svg>